<svg width="1200" height="800" xmlns="http://www.w3.org/2000/svg">
  <defs>
    <linearGradient id="bg1" x1="0%" y1="0%" x2="100%" y2="100%">
      <stop offset="0%" style="stop-color:#1a1a2e"/>
      <stop offset="100%" style="stop-color:#16213e"/>
    </linearGradient>
  </defs>
  <rect width="1200" height="800" fill="url(#bg1)"/>
  
  <!-- Title -->
  <text x="600" y="50" text-anchor="middle" fill="#ffffff" font-size="36" font-weight="bold">Parallel Search Architecture</text>
  <text x="600" y="85" text-anchor="middle" fill="#8892b0" font-size="18">chill-aliyun-global-search | February 7, 2026</text>
  
  <!-- Central Scheduler -->
  <rect x="500" y="130" width="200" height="70" rx="15" fill="#e94560" stroke="#ff6b6b" stroke-width="2"/>
  <text x="600" y="165" text-anchor="middle" fill="#ffffff" font-size="16" font-weight="bold">Global Search</text>
  <text x="600" y="185" text-anchor="middle" fill="#ffffff" font-size="14">Scheduler</text>
  
  <!-- Worker nodes -->
  <rect x="100" y="270" width="200" height="60" rx="10" fill="#0f3460" stroke="#e94560" stroke-width="2"/>
  <text x="200" y="305" text-anchor="middle" fill="#ffffff" font-size="16" font-weight="bold">feikuai.tv</text>
  
  <rect x="500" y="270" width="200" height="60" rx="10" fill="#533483" stroke="#e94560" stroke-width="2"/>
  <text x="600" y="305" text-anchor="middle" fill="#ffffff" font-size="16" font-weight="bold">Telegram 4K</text>
  
  <rect x="900" y="270" width="200" height="60" rx="10" fill="#16213e" stroke="#e94560" stroke-width="2"/>
  <text x="1000" y="305" text-anchor="middle" fill="#ffffff" font-size="16" font-weight="bold">shareAliyun</text>
  
  <!-- Arrows from scheduler -->
  <line x1="550" y1="200" x2="200" y2="270" stroke="#00d9ff" stroke-width="3"/>
  <line x1="600" y1="200" x2="600" y2="270" stroke="#00d9ff" stroke-width="3"/>
  <line x1="650" y1="200" x2="1000" y2="270" stroke="#00d9ff" stroke-width="3"/>
  
  <!-- Workflow steps -->
  <rect x="290" y="400" width="120" height="50" rx="8" fill="#2d3748" stroke="#00d9ff" stroke-width="2"/>
  <text x="350" y="430" text-anchor="middle" fill="#00d9ff" font-size="16" font-weight="bold">Search</text>
  
  <rect x="540" y="400" width="120" height="50" rx="8" fill="#2d3748" stroke="#00d9ff" stroke-width="2"/>
  <text x="600" y="430" text-anchor="middle" fill="#00d9ff" font-size="16" font-weight="bold">Verify</text>
  
  <rect x="790" y="400" width="120" height="50" rx="8" fill="#2d3748" stroke="#00d9ff" stroke-width="2"/>
  <text x="840" y="430" text-anchor="middle" fill="#00d9ff" font-size="16" font-weight="bold">Send</text>
  
  <!-- Arrows between steps -->
  <line x1="410" y1="425" x2="540" y2="425" stroke="#00d9ff" stroke-width="2"/>
  <line x1="660" y1="425" x2="790" y2="425" stroke="#00d9ff" stroke-width="2"/>
  
  <!-- Discord Output -->
  <rect x="450" y="550" width="300" height="80" rx="15" fill="#5865f2" stroke="#7289da" stroke-width="2"/>
  <text x="600" y="585" text-anchor="middle" fill="#ffffff" font-size="22" font-weight="bold">Discord Output</text>
  <text x="600" y="615" text-anchor="middle" fill="#dcddde" font-size="14">Screenshots + Results</text>
  
  <!-- Workflow arrows down -->
  <line x1="200" y1="330" x2="200" y2="400" stroke="#00d9ff" stroke-width="1" stroke-dasharray="5,5"/>
  <line x1="600" y1="330" x2="600" y2="400" stroke="#00d9ff" stroke-width="1" stroke-dasharray="5,5"/>
  <line x1="1000" y1="330" x2="1000" y2="400" stroke="#00d9ff" stroke-width="1" stroke-dasharray="5,5"/>
  
  <line x1="200" y1="450" x2="450" y2="550" stroke="#5865f2" stroke-width="1"/>
  <line x1="600" y1="450" x2="600" y2="550" stroke="#5865f2" stroke-width="1"/>
  <line x1="1000" y1="450" x2="750" y2="550" stroke="#5865f2" stroke-width="1"/>
  
  <!-- Labels -->
  <text x="600" y="250" text-anchor="middle" fill="#8892b0" font-size="12">Parallel Execution</text>
  <text x="600" y="770" text-anchor="middle" fill="#4a5568" font-size="12">Generated: 2026-02-07 | Hills External Cortex</text>
</svg>