<svg width="1000" height="700" xmlns="http://www.w3.org/2000/svg">
  <rect width="1000" height="700" fill="#0d1117"/>
  
  <!-- Title -->
  <text x="500" y="50" text-anchor="middle" fill="#ffffff" font-size="32" font-weight="bold">The Self-Improvement Cycle</text>
  <text x="500" y="85" text-anchor="middle" fill="#8b949e" font-size="16">chill-self-improvement Skill | February 7, 2026</text>
  
  <!-- Cycle nodes -->
  <circle cx="500" cy="170" r="55" fill="#161b22" stroke="#f85149" stroke-width="3"/>
  <text x="500" y="160" text-anchor="middle" fill="#f85149" font-size="14" font-weight="bold">1. Diagnosis</text>
  <text x="500" y="180" text-anchor="middle" fill="#8b949e" font-size="11">Root cause</text>
  
  <circle cx="720" cy="300" r="55" fill="#161b22" stroke="#f0883e" stroke-width="3"/>
  <text x="720" y="290" text-anchor="middle" fill="#f0883e" font-size="14" font-weight="bold">2. Proposal</text>
  <text x="720" y="310" text-anchor="middle" fill="#8b949e" font-size="11">Correction plan</text>
  
  <circle cx="720" cy="480" r="55" fill="#161b22" stroke="#3fb950" stroke-width="3"/>
  <text x="720" y="470" text-anchor="middle" fill="#3fb950" font-size="14" font-weight="bold">3. Confirmation</text>
  <text x="720" y="490" text-anchor="middle" fill="#8b949e" font-size="11">User approval</text>
  
  <circle cx="500" cy="580" r="55" fill="#161b22" stroke="#58a6ff" stroke-width="3"/>
  <text x="500" y="570" text-anchor="middle" fill="#58a6ff" font-size="14" font-weight="bold">4. Execution</text>
  <text x="500" y="590" text-anchor="middle" fill="#8b949e" font-size="11">Apply fix</text>
  
  <circle cx="280" cy="480" r="55" fill="#161b22" stroke="#a371f7" stroke-width="3"/>
  <text x="280" y="470" text-anchor="middle" fill="#a371f7" font-size="14" font-weight="bold">5. Record</text>
  <text x="280" y="490" text-anchor="middle" fill="#8b949e" font-size="11">Archive learning</text>
  
  <circle cx="280" cy="300" r="55" fill="#161b22" stroke="#8957e5" stroke-width="3"/>
  <text x="280" y="290" text-anchor="middle" fill="#8957e5" font-size="14" font-weight="bold">6. Self-Check</text>
  <text x="280" y="310" text-anchor="middle" fill="#8b949e" font-size="11">Update protocols</text>
  
  <!-- Cycle arrows -->
  <path d="M 550 200 Q 650 250 670 260" fill="none" stroke="#30363d" stroke-width="2"/>
  <path d="M 720 355 L 720 425" fill="none" stroke="#30363d" stroke-width="2"/>
  <path d="M 670 520 Q 600 560 550 570" fill="none" stroke="#30363d" stroke-width="2"/>
  <path d="M 450 570 Q 350 530 330 520" fill="none" stroke="#30363d" stroke-width="2"/>
  <path d="M 280 425 L 280 355" fill="none" stroke="#30363d" stroke-width="2"/>
  <path d="M 330 260 Q 400 220 450 200" fill="none" stroke="#30363d" stroke-width="2"/>
  
  <!-- Center text -->
  <text x="500" y="390" text-anchor="middle" fill="#ffffff" font-size="20" font-weight="bold">Continuous</text>
  <text x="500" y="415" text-anchor="middle" fill="#ffffff" font-size="20" font-weight="bold">Improvement</text>
  
  <!-- Footer -->
  <text x="500" y="680" text-anchor="middle" fill="#484f58" font-size="12">Engineering Quality Through Structured Reflection</text>
</svg>